# File created by Blade
# Date/Time:  Tue Jan 27 19:23:16 2015
# Frame Rate: 120.000 fps
#------------------------------------------------------
:FULLY-SPECIFIED
:DEGREES
2737
root 3.479377 32.352863 -0.025152 -4.526306 1.295832 0.760241
Spine 3.156968 2.991120 0.722997
Head 10.670591 -34.484286 -10.399765
LeftShoulder -6.325768 -4.501022 21.959655
LeftArm -2.237328 40.653768 -99.158552
LeftForeArm 4.675360 -0.000000 14.483218
LeftHand 9.972929 -0.000000 -4.438263
LeftHandThumb1 -26.253704 0.000000 33.147579
RightShoulder -10.199501 -7.062653 -44.851520
RightArm 18.327101 -10.457939 15.441446
RightForeArm 24.292597 -0.000000 83.410111
RightHand 28.812937 -0.000000 -4.245930
RightHandThumb1 -24.326973 -0.000000 -32.862282
LeftUpLeg 10.027174 1.489438 0.254400
LeftLeg 2.593165 -0.000000 -0.000000
LeftFoot -17.325110 13.005257 -23.675702
LeftToeBase 17.069387 -0.000000 -0.000000
RightUpLeg 9.394139 -8.298279 1.623809
RightLeg 0.439137 -0.000000 -0.000000
RightFoot -12.416064 -14.842028 13.530810
RightToeBase 11.183498 -0.000000 -0.000000
2738
root 3.477360 32.352355 -0.024648 -4.520893 1.275625 0.751595
Spine 3.145927 2.975708 0.724851
Head 10.637385 -34.494574 -10.365740
LeftShoulder -6.311987 -4.469769 21.995083
LeftArm -2.282775 40.655703 -99.199796
LeftForeArm 4.614119 -0.000000 14.454475
LeftHand 9.875152 -0.000000 -4.820224
LeftHandThumb1 -26.253704 0.000000 33.147579
RightShoulder -10.206004 -6.827435 -44.818772
RightArm 17.952917 -9.920042 16.038376
RightForeArm 24.254962 -0.000000 83.494393
RightHand 28.782400 -0.000000 -4.458828
RightHandThumb1 -24.326973 -0.000000 -32.862282
LeftUpLeg 10.025169 1.478144 0.262606
LeftLeg 2.593719 -0.000000 -0.000000
LeftFoot -17.336493 13.020014 -23.688298
LeftToeBase 17.109572 -0.000000 -0.000000
RightUpLeg 9.385265 -8.307548 1.634447
RightLeg 0.443618 -0.000000 -0.000000
RightFoot -12.402621 -14.826500 13.499193
RightToeBase 11.165776 -0.000000 -0.000000
2739
root 3.493694 32.351908 -0.003538 -4.667815 1.151478 0.797682
Spine 3.277449 3.063083 0.755677
Head 10.637148 -34.451499 -10.439640
LeftShoulder -6.309099 -4.461708 21.972552
LeftArm -2.369262 40.678945 -99.294089
LeftForeArm 4.631356 -0.000000 14.392628
LeftHand 9.811407 -0.000000 -4.793216
LeftHandThumb1 -26.253704 0.000000 33.147579
RightShoulder -10.178829 -6.342780 -44.918646
RightArm 17.435700 -9.571341 16.740155
RightForeArm 24.245079 0.000000 83.544486
RightHand 28.864349 -0.000000 -4.281335
RightHandThumb1 -24.326973 -0.000000 -32.862282
LeftUpLeg 10.191484 1.569274 0.205647
LeftLeg 2.697063 -0.000000 -0.000000
LeftFoot -17.351721 12.961020 -23.657319
LeftToeBase 16.917444 -0.000000 -0.000000
RightUpLeg 9.588687 -8.327573 1.510926
RightLeg 0.394151 -0.000000 -0.000000
RightFoot -12.398633 -14.634298 13.532813
RightToeBase 11.094625 -0.000000 -0.000000
2740
root 3.495306 32.350653 -0.001979 -4.666644 1.113236 0.801490
Spine 3.278236 3.063297 0.750587
Head 10.597587 -34.474704 -10.386329
LeftShoulder -6.315879 -4.560399 22.002127
LeftArm -2.553841 40.743555 -99.437612
LeftForeArm 4.705698 -0.000000 14.308189
LeftHand 9.831626 -0.000000 -4.495475
LeftHandThumb1 -26.253704 0.000000 33.147579
RightShoulder -10.254270 -6.959067 -44.622913
RightArm 17.320912 -7.995232 17.254231
RightForeArm 24.206503 -0.000000 83.528501
RightHand 29.113194 -0.000000 -4.477861
RightHandThumb1 -24.326973 -0.000000 -32.862282
LeftUpLeg 10.196205 1.677215 0.217040
LeftLeg 2.700834 -0.000000 -0.000000
LeftFoot -17.329781 12.899301 -23.614441
LeftToeBase 16.889669 -0.000000 -0.000000
RightUpLeg 9.587324 -8.314875 1.501383
RightLeg 0.391649 -0.000000 -0.000000
RightFoot -12.393020 -14.604796 13.522058
RightToeBase 11.074411 -0.000000 -0.000000
2741
root 3.491579 32.349633 -0.004328 -4.642610 1.095642 0.793507
Spine 3.262612 3.046791 0.740378
Head 10.558895 -34.499551 -10.331287
LeftShoulder -6.328326 -4.406121 22.002375
LeftArm -2.381434 40.829497 -99.329018
LeftForeArm 4.709106 0.000000 14.217751
LeftHand 9.880344 -0.000000 -4.554885
LeftHandThumb1 -26.253704 0.000000 33.147579
RightShoulder -10.293186 -6.974362 -44.510687
RightArm 16.948788 -6.899429 18.038036
RightForeArm 24.151138 -0.000000 83.645719
RightHand 29.045177 -0.000000 -4.674529
RightHandThumb1 -24.326973 -0.000000 -32.862282
LeftUpLeg 10.175272 1.702756 0.236391
LeftLeg 2.684364 -0.000000 -0.000000
LeftFoot -17.393994 12.865307 -23.762468
LeftToeBase 17.150822 -0.000000 -0.000000
RightUpLeg 9.547843 -8.305967 1.520937
RightLeg 0.409383 -0.000000 -0.000000
RightFoot -12.409480 -14.596410 13.532638
RightToeBase 11.122305 -0.000000 -0.000000
2742
root 3.480982 32.347788 -0.013565 -4.564084 1.116428 0.755086
Spine 3.200656 3.004341 0.725300
Head 10.511494 -34.566945 -10.210482
LeftShoulder -6.331631 -4.501230 22.065487
LeftArm -2.513077 40.903401 -99.432552
LeftForeArm 4.719980 -0.000000 14.128855
LeftHand 9.863590 -0.000000 -4.585166
LeftHandThumb1 -26.253704 0.000000 33.147579
RightShoulder -10.337611 -6.949807 -44.361108
RightArm 16.523101 -5.718672 18.874736
RightForeArm 24.073415 0.000000 83.748023
RightHand 29.200354 -0.000000 -4.603443
RightHandThumb1 -24.326973 -0.000000 -32.862282
LeftUpLeg 10.103816 1.691319 0.283015
LeftLeg 2.630417 -0.000000 -0.000000
LeftFoot -17.337418 12.909419 -23.587324
LeftToeBase 16.935797 -0.000000 -0.000000
RightUpLeg 9.436465 -8.282452 1.603998
RightLeg 0.438574 -0.000000 -0.000000
RightFoot -12.400843 -14.685625 13.455130
RightToeBase 11.124859 -0.000000 -0.000000
2743
root 3.477761 32.346929 -0.013308 -4.552631 1.089234 0.747826
Spine 3.193368 3.008347 0.707709
Head 10.497972 -34.628385 -10.148065
LeftShoulder -6.338437 -4.533406 22.094713
LeftArm -2.570653 40.956578 -99.486907
LeftForeArm 4.726774 -0.000000 14.030901
LeftHand 9.958223 -0.000000 -4.674868
LeftHandThumb1 -26.253704 0.000000 33.147579
RightShoulder -10.383947 -6.889100 -44.241249
RightArm 16.101471 -4.474740 19.776354
RightForeArm 23.896069 -0.000000 83.869182
RightHand 29.149123 -0.000000 -4.620991
RightHandThumb1 -24.326973 -0.000000 -32.862282
LeftUpLeg 10.097195 1.674404 0.291103
LeftLeg 2.621814 -0.000000 -0.000000
LeftFoot -17.422138 12.931160 -23.735309
LeftToeBase 17.127888 -0.000000 -0.000000
RightUpLeg 9.422222 -8.265732 1.621573
RightLeg 0.440199 -0.000000 -0.000000
RightFoot -12.410032 -14.680150 13.471284
RightToeBase 11.094827 -0.000000 -0.000000
2744
root 3.476693 32.346322 -0.012779 -4.541501 1.080433 0.749872
Spine 3.187442 2.985114 0.679032
Head 10.480699 -34.710307 -10.079107
LeftShoulder -6.359518 -4.540412 22.120448
LeftArm -2.596585 41.016755 -99.529671
LeftForeArm 4.758396 0.000000 13.941880
LeftHand 9.963886 -0.000000 -4.710594
LeftHandThumb1 -26.253704 0.000000 33.147579
RightShoulder -10.442853 -6.837090 -44.087227
RightArm 15.699172 -3.100383 20.695745
RightForeArm 23.756118 -0.000000 83.968153
RightHand 29.162071 0.000000 -4.581509
RightHandThumb1 -24.326973 -0.000000 -32.862282
LeftUpLeg 10.089580 1.686736 0.290316
LeftLeg 2.628529 -0.000000 -0.000000
LeftFoot -17.362931 12.943771 -23.597862
LeftToeBase 16.918245 -0.000000 -0.000000
RightUpLeg 9.413119 -8.264968 1.622952
RightLeg 0.434757 -0.000000 -0.000000
RightFoot -12.418503 -14.673790 13.474881
RightToeBase 11.129402 -0.000000 -0.000000
2745
root 3.472161 32.345583 -0.014740 -4.513657 1.072098 0.744877
Spine 3.171404 2.957156 0.649056
Head 10.452863 -34.790049 -10.003511
LeftShoulder -6.393198 -4.532476 22.148138
LeftArm -2.591770 41.084008 -99.544672
LeftForeArm 4.737754 0.000000 13.846814
LeftHand 9.997411 -0.000000 -4.742208
LeftHandThumb1 -26.253704 0.000000 33.147579
RightShoulder -10.482872 -6.669760 -43.953480
RightArm 15.219256 -1.726989 21.712674
RightForeArm 23.788403 -0.000000 84.090035
RightHand 29.235817 -0.000000 -5.123241
RightHandThumb1 -24.326973 -0.000000 -32.862282
LeftUpLeg 10.061385 1.658957 0.297642
LeftLeg 2.613900 -0.000000 -0.000000
LeftFoot -17.437117 12.964639 -23.730510
LeftToeBase 17.081722 -0.000000 -0.000000
RightUpLeg 9.368055 -8.230662 1.648586
RightLeg 0.458431 -0.000000 -0.000000
RightFoot -12.438617 -14.708734 13.464949
RightToeBase 11.143475 -0.000000 -0.000000
2746
root 3.470296 32.344677 -0.013828 -4.499875 1.067478 0.739916
Spine 3.164732 2.935378 0.631880
Head 10.436981 -34.894066 -9.945684
LeftShoulder -6.415880 -4.543110 22.169508
LeftArm -2.611788 41.119591 -99.586032
LeftForeArm 4.757851 -0.000000 13.745139
LeftHand 10.015508 -0.000000 -4.772670
LeftHandThumb1 -26.253704 0.000000 33.147579
RightShoulder -10.497753 -6.221635 -43.906969
RightArm 14.575477 -0.471150 22.814556
RightForeArm 23.851485 -0.000000 84.249974
RightHand 29.280036 -0.000000 -4.737909
RightHandThumb1 -24.326973 -0.000000 -32.862282
LeftUpLeg 10.055263 1.693455 0.310423
LeftLeg 2.612041 -0.000000 -0.000000
LeftFoot -17.379858 12.939043 -23.618648
LeftToeBase 16.922118 -0.000000 -0.000000
RightUpLeg 9.365732 -8.251103 1.655673
RightLeg 0.437127 -0.000000 -0.000000
RightFoot -12.411498 -14.696689 13.427206
RightToeBase 11.087256 -0.000000 -0.000000
2747
root 3.466803 32.343885 -0.014455 -4.473967 1.070225 0.732959
Spine 3.148739 2.915958 0.602402
Head 10.423748 -35.003920 -9.859695
LeftShoulder -6.430027 -4.531288 22.208377
LeftArm -2.594146 41.152167 -99.620488
LeftForeArm 4.761439 -0.000000 13.630414
LeftHand 10.031536 -0.000000 -4.753800
LeftHandThumb1 -26.253704 0.000000 33.147579
RightShoulder -10.573396 -6.319281 -43.700200
RightArm 14.226500 1.338436 23.877273
RightForeArm 23.989046 0.000000 84.407437
RightHand 29.285431 -0.000000 -5.141366
RightHandThumb1 -24.326973 -0.000000 -32.862282
LeftUpLeg 10.041941 1.690347 0.319425
LeftLeg 2.583590 -0.000000 -0.000000
LeftFoot -17.371364 12.960884 -23.572702
LeftToeBase 16.885654 -0.000000 -0.000000
RightUpLeg 9.334754 -8.265699 1.671706
RightLeg 0.443974 -0.000000 -0.000000
RightFoot -12.402472 -14.707113 13.384877
RightToeBase 11.059098 -0.000000 -0.000000
